<?xml version="1.0" encoding="utf-8" ?><svg xmlns="http://www.w3.org/2000/svg" xmlns:xlink="http://www.w3.org/1999/xlink" width="1561" height="1561" viewBox="0 0 1561 1561"><clipPath id="cl_3"><rect x="-6.1035156e-05" width="1560.6121" height="1560.6121"/></clipPath><g clip-path="url(#cl_3)"><path fill="#80B6AD" transform="matrix(2.03205 0 0 2.03205 -650.255 0)" d="M677.595 70.8C851.416 56.2294 1004.1 185.421 1018.52 359.268C1032.94 533.114 903.628 685.7 729.783 699.972C556.15 714.227 403.802 585.095 389.399 411.46C374.997 237.824 503.986 85.3529 677.595 70.8Z"/><path fill="#0B2119" transform="matrix(2.03205 0 0 2.03205 -650.255 0)" d="M545.304 261.481C559.739 260.68 580.278 261.342 595.248 261.344L692.262 261.358L768.413 261.301C781.862 261.277 795.256 261.108 808.73 261.501C823.375 261.928 836.975 273.279 838.541 288.079C839.844 300.382 839.221 313.788 839.2 326.266L839.14 395.225L839.149 502.13C839.155 518.525 839.217 534.971 839.309 551.305C839.464 556.011 836.848 565.741 830.607 565.409C821.677 564.935 809.405 552.423 802.616 546.743C791.4 537.321 779.972 528.079 768.844 518.587C764.383 502.11 758.362 489.728 744.546 478.802C730.868 468.013 713.433 463.165 696.149 465.344C675.662 467.783 662.401 477.612 650.017 493.302C615.064 492.709 579.677 493.938 544.714 492.875C540.695 492.753 533.478 490.186 530.122 487.861C513.41 476.287 516.355 456.707 516.344 439.137L516.336 387.12L516.362 324.504C516.377 298.448 510.619 266.819 545.304 261.481Z"/><path fill="#80B6AD" transform="matrix(2.03205 0 0 2.03205 -650.255 0)" d="M582.806 316.448C611.54 315.52 642.27 316.89 671.467 316.285C688.606 317.039 709.288 314.931 726.083 317.066C733.316 317.985 737.299 331.708 724.562 336.87C706.83 336.965 585.999 338.498 579.622 335.765C577.296 334.768 575.615 332.692 574.751 330.356C573.783 327.739 573.701 324.711 575.024 322.189C576.709 318.977 579.481 317.506 582.806 316.448Z"/><path fill="#80B6AD" transform="matrix(2.03205 0 0 2.03205 -650.255 0)" d="M586.386 414.245L679.173 414.155C694.186 414.141 709.553 413.847 724.565 414.477C726.336 414.552 728.262 415.432 729.661 416.539C731.897 418.281 733.314 420.87 733.575 423.693C734.191 431.109 728.739 434.349 722.047 434.565L629.305 434.584C614.425 434.591 598.163 434.821 583.371 434.292C572.308 433.897 568.525 415.242 586.386 414.245Z"/><path fill="#80B6AD" transform="matrix(2.03205 0 0 2.03205 -650.255 0)" d="M653.687 365.314C669.292 365.101 777.318 363.719 783.305 366.397C785.896 367.556 787.755 369.859 788.68 372.504C789.578 375.071 789.501 377.862 788.22 380.293C786.601 383.367 783.762 384.669 780.609 385.66C765.159 385.79 654.472 387.396 649.06 384.252C646.725 382.895 645.049 380.105 644.429 377.536C643.793 374.897 644.62 372.105 646.075 369.854C647.937 366.973 650.489 366.024 653.687 365.314Z"/><path fill="#80B6AD" transform="matrix(2.03205 0 0 2.03205 -650.255 0)" d="M582.779 365.308C593.787 365.172 611.917 363.803 621.85 366.545C629.621 368.69 631.333 381.786 619.853 385.673C607.914 385.799 589.455 387.41 578.707 383.704C570.084 380.731 573.108 368.136 582.779 365.308Z"/><path fill="#80B6AD" transform="matrix(2.03205 0 0 2.03205 -650.255 0)" d="M757.372 316.451C764.7 316.269 776.474 315.254 783.03 317.665C793.376 321.47 790.377 333.442 780.78 336.818C774.413 336.876 761.864 337.993 756.429 336.213C745.171 332.526 747.01 320.877 757.372 316.451Z"/><path fill="#0B2119" transform="matrix(2.03205 0 0 2.03205 -650.255 0)" d="M597.601 204.983C614.925 204.144 637.075 204.734 654.842 204.746L758.866 204.796L827.354 204.709C837.949 204.677 848.542 204.616 859.134 204.699C866.965 204.761 873 206.077 879.51 210.699C894.415 221.279 891.661 243.34 891.62 259.51L891.539 311.26L891.608 384.977C891.617 395.966 891.688 406.969 891.578 417.957C891.506 425.178 890.61 433.657 885.848 439.388C883.6 442.093 877.562 450.736 873.695 447.402L873.509 443.607C872.622 399.211 874.218 353.51 873.504 308.977C873.21 290.651 874.537 269.427 872.367 251.322C871.18 244.897 867.335 238.707 863.011 234.116C850.281 220.6 830.946 223.412 813.732 223.424L764.246 223.427L574.465 223.366C579.949 211.937 585.545 207.919 597.601 204.983Z"/><path fill="#0B2119" transform="matrix(2.03205 0 0 2.03205 -650.255 0)" d="M573.116 229.885C587.594 229.292 605.291 229.731 620.1 229.724L710.296 229.755L790.593 229.707C805.267 229.677 820.037 229.419 834.697 229.753C872.025 230.603 867.328 263.303 867.252 289.224L867.088 345.269L867.213 413.991C867.223 425.801 867.383 438.016 866.942 449.815C866.523 461.014 861.669 467.541 853.579 474.601L853.382 465.504C852.81 423.647 854.123 380.804 853.51 338.82C853.244 320.606 854.552 299.557 852.092 281.685C850.583 273.7 846.158 266.025 840.7 260.283C825.608 244.406 806.128 247.017 786.162 247.023L738.851 247.016L549.485 246.933C555.463 236.589 561.191 231.952 573.116 229.885Z"/><path fill="#0B2119" transform="matrix(2.03205 0 0 2.03205 -650.255 0)" d="M695.624 481.074C723.111 476.404 749.149 494.994 753.662 522.509C758.175 550.025 739.439 575.959 711.901 580.315C684.583 584.637 658.904 566.083 654.427 538.788C649.951 511.493 668.357 485.707 695.624 481.074Z"/><path fill="#80B6AD" transform="matrix(2.03205 0 0 2.03205 -650.255 0)" d="M702.066 499.145C714.729 498.913 711.685 513.729 711.566 522.61C715.993 522.497 730.062 521.499 732.208 524.752C743.121 541.293 718.117 538.478 711.591 538.338C711.415 547.202 714.517 556.432 706.116 561.681C692.946 561.703 696.143 547.896 696.334 538.4C691.492 538.389 678.114 539.848 675.659 536.111C665.053 519.956 689.462 522.504 696.398 522.602C696.559 513.184 693.19 504.735 702.066 499.145Z"/></g></svg>